<mxfile host="app.diagrams.net" modified="2024-04-02T23:03:54.010Z" agent="Mozilla/5.0 (Windows NT 10.0; Win64; x64) AppleWebKit/537.36 (KHTML, like Gecko) Chrome/122.0.0.0 Safari/537.36 Edg/122.0.0.0" etag="HgYRi4JKB98tcuuCm5iQ" version="24.2.1" type="github">
  <diagram id="C5RBs43oDa-KdzZeNtuy" name="Page-1">
    <mxGraphModel dx="1425" dy="541" grid="1" gridSize="10" guides="1" tooltips="1" connect="1" arrows="1" fold="1" page="1" pageScale="1" pageWidth="827" pageHeight="1169" math="0" shadow="0">
      <root>
        <mxCell id="WIyWlLk6GJQsqaUBKTNV-0" />
        <mxCell id="WIyWlLk6GJQsqaUBKTNV-1" parent="WIyWlLk6GJQsqaUBKTNV-0" />
        <mxCell id="FdTTx2aXjzVB3Kq-SJSm-14" value="Classname" style="swimlane;fontStyle=1;align=center;verticalAlign=top;childLayout=stackLayout;horizontal=1;startSize=30;horizontalStack=0;resizeParent=1;resizeParentMax=0;resizeLast=0;collapsible=1;marginBottom=0;whiteSpace=wrap;html=1;" vertex="1" parent="WIyWlLk6GJQsqaUBKTNV-1">
          <mxGeometry x="100" y="190" width="170" height="322" as="geometry" />
        </mxCell>
        <mxCell id="FdTTx2aXjzVB3Kq-SJSm-15" value="+globalId: int" style="text;strokeColor=none;fillColor=none;align=left;verticalAlign=top;spacingLeft=4;spacingRight=4;overflow=hidden;rotatable=0;points=[[0,0.5],[1,0.5]];portConstraint=eastwest;whiteSpace=wrap;html=1;" vertex="1" parent="FdTTx2aXjzVB3Kq-SJSm-14">
          <mxGeometry y="30" width="170" height="26" as="geometry" />
        </mxCell>
        <mxCell id="FdTTx2aXjzVB3Kq-SJSm-18" value="&lt;div&gt;+name: str&lt;/div&gt;" style="text;strokeColor=none;fillColor=none;align=left;verticalAlign=top;spacingLeft=4;spacingRight=4;overflow=hidden;rotatable=0;points=[[0,0.5],[1,0.5]];portConstraint=eastwest;whiteSpace=wrap;html=1;" vertex="1" parent="FdTTx2aXjzVB3Kq-SJSm-14">
          <mxGeometry y="56" width="170" height="32" as="geometry" />
        </mxCell>
        <mxCell id="FdTTx2aXjzVB3Kq-SJSm-20" value="+dob" style="text;strokeColor=none;fillColor=none;align=left;verticalAlign=top;spacingLeft=4;spacingRight=4;overflow=hidden;rotatable=0;points=[[0,0.5],[1,0.5]];portConstraint=eastwest;whiteSpace=wrap;html=1;" vertex="1" parent="FdTTx2aXjzVB3Kq-SJSm-14">
          <mxGeometry y="88" width="170" height="32" as="geometry" />
        </mxCell>
        <mxCell id="FdTTx2aXjzVB3Kq-SJSm-21" value="+ID" style="text;strokeColor=none;fillColor=none;align=left;verticalAlign=top;spacingLeft=4;spacingRight=4;overflow=hidden;rotatable=0;points=[[0,0.5],[1,0.5]];portConstraint=eastwest;whiteSpace=wrap;html=1;" vertex="1" parent="FdTTx2aXjzVB3Kq-SJSm-14">
          <mxGeometry y="120" width="170" height="32" as="geometry" />
        </mxCell>
        <mxCell id="FdTTx2aXjzVB3Kq-SJSm-23" value="&lt;div&gt;+classes&lt;/div&gt;" style="text;strokeColor=none;fillColor=none;align=left;verticalAlign=top;spacingLeft=4;spacingRight=4;overflow=hidden;rotatable=0;points=[[0,0.5],[1,0.5]];portConstraint=eastwest;whiteSpace=wrap;html=1;" vertex="1" parent="FdTTx2aXjzVB3Kq-SJSm-14">
          <mxGeometry y="152" width="170" height="26" as="geometry" />
        </mxCell>
        <mxCell id="FdTTx2aXjzVB3Kq-SJSm-24" value="&lt;div&gt;+emails&lt;/div&gt;" style="text;strokeColor=none;fillColor=none;align=left;verticalAlign=top;spacingLeft=4;spacingRight=4;overflow=hidden;rotatable=0;points=[[0,0.5],[1,0.5]];portConstraint=eastwest;whiteSpace=wrap;html=1;" vertex="1" parent="FdTTx2aXjzVB3Kq-SJSm-14">
          <mxGeometry y="178" width="170" height="26" as="geometry" />
        </mxCell>
        <mxCell id="FdTTx2aXjzVB3Kq-SJSm-25" value="&lt;div&gt;+User(String)&lt;/div&gt;" style="text;strokeColor=none;fillColor=none;align=left;verticalAlign=top;spacingLeft=4;spacingRight=4;overflow=hidden;rotatable=0;points=[[0,0.5],[1,0.5]];portConstraint=eastwest;whiteSpace=wrap;html=1;" vertex="1" parent="FdTTx2aXjzVB3Kq-SJSm-14">
          <mxGeometry y="204" width="170" height="26" as="geometry" />
        </mxCell>
        <mxCell id="FdTTx2aXjzVB3Kq-SJSm-16" value="" style="line;strokeWidth=1;fillColor=none;align=left;verticalAlign=middle;spacingTop=-1;spacingLeft=3;spacingRight=3;rotatable=0;labelPosition=right;points=[];portConstraint=eastwest;strokeColor=inherit;" vertex="1" parent="FdTTx2aXjzVB3Kq-SJSm-14">
          <mxGeometry y="230" width="170" height="8" as="geometry" />
        </mxCell>
        <mxCell id="FdTTx2aXjzVB3Kq-SJSm-22" value="+globalId:&lt;div&gt;&lt;br&gt;&lt;/div&gt;" style="text;strokeColor=none;fillColor=none;align=left;verticalAlign=top;spacingLeft=4;spacingRight=4;overflow=hidden;rotatable=0;points=[[0,0.5],[1,0.5]];portConstraint=eastwest;whiteSpace=wrap;html=1;" vertex="1" parent="FdTTx2aXjzVB3Kq-SJSm-14">
          <mxGeometry y="238" width="170" height="32" as="geometry" />
        </mxCell>
        <mxCell id="FdTTx2aXjzVB3Kq-SJSm-17" value="+ method(type): type" style="text;strokeColor=none;fillColor=none;align=left;verticalAlign=top;spacingLeft=4;spacingRight=4;overflow=hidden;rotatable=0;points=[[0,0.5],[1,0.5]];portConstraint=eastwest;whiteSpace=wrap;html=1;" vertex="1" parent="FdTTx2aXjzVB3Kq-SJSm-14">
          <mxGeometry y="270" width="170" height="26" as="geometry" />
        </mxCell>
        <mxCell id="FdTTx2aXjzVB3Kq-SJSm-19" value="+globalId:&lt;div&gt;&lt;br&gt;&lt;/div&gt;" style="text;strokeColor=none;fillColor=none;align=left;verticalAlign=top;spacingLeft=4;spacingRight=4;overflow=hidden;rotatable=0;points=[[0,0.5],[1,0.5]];portConstraint=eastwest;whiteSpace=wrap;html=1;" vertex="1" parent="FdTTx2aXjzVB3Kq-SJSm-14">
          <mxGeometry y="296" width="170" height="26" as="geometry" />
        </mxCell>
        <mxCell id="FdTTx2aXjzVB3Kq-SJSm-26" value="Student" style="swimlane;fontStyle=1;align=center;verticalAlign=top;childLayout=stackLayout;horizontal=1;startSize=30;horizontalStack=0;resizeParent=1;resizeParentMax=0;resizeLast=0;collapsible=1;marginBottom=0;whiteSpace=wrap;html=1;" vertex="1" parent="WIyWlLk6GJQsqaUBKTNV-1">
          <mxGeometry x="329" y="180" width="170" height="322" as="geometry" />
        </mxCell>
        <mxCell id="FdTTx2aXjzVB3Kq-SJSm-27" value="+name" style="text;strokeColor=none;fillColor=none;align=left;verticalAlign=top;spacingLeft=4;spacingRight=4;overflow=hidden;rotatable=0;points=[[0,0.5],[1,0.5]];portConstraint=eastwest;whiteSpace=wrap;html=1;" vertex="1" parent="FdTTx2aXjzVB3Kq-SJSm-26">
          <mxGeometry y="30" width="170" height="26" as="geometry" />
        </mxCell>
        <mxCell id="FdTTx2aXjzVB3Kq-SJSm-28" value="GetName(String)" style="text;strokeColor=none;fillColor=none;align=left;verticalAlign=top;spacingLeft=4;spacingRight=4;overflow=hidden;rotatable=0;points=[[0,0.5],[1,0.5]];portConstraint=eastwest;whiteSpace=wrap;html=1;" vertex="1" parent="FdTTx2aXjzVB3Kq-SJSm-26">
          <mxGeometry y="56" width="170" height="32" as="geometry" />
        </mxCell>
        <mxCell id="FdTTx2aXjzVB3Kq-SJSm-29" value="+dob" style="text;strokeColor=none;fillColor=none;align=left;verticalAlign=top;spacingLeft=4;spacingRight=4;overflow=hidden;rotatable=0;points=[[0,0.5],[1,0.5]];portConstraint=eastwest;whiteSpace=wrap;html=1;" vertex="1" parent="FdTTx2aXjzVB3Kq-SJSm-26">
          <mxGeometry y="88" width="170" height="32" as="geometry" />
        </mxCell>
        <mxCell id="FdTTx2aXjzVB3Kq-SJSm-30" value="+ID" style="text;strokeColor=none;fillColor=none;align=left;verticalAlign=top;spacingLeft=4;spacingRight=4;overflow=hidden;rotatable=0;points=[[0,0.5],[1,0.5]];portConstraint=eastwest;whiteSpace=wrap;html=1;" vertex="1" parent="FdTTx2aXjzVB3Kq-SJSm-26">
          <mxGeometry y="120" width="170" height="32" as="geometry" />
        </mxCell>
        <mxCell id="FdTTx2aXjzVB3Kq-SJSm-31" value="&lt;div&gt;+classes&lt;/div&gt;" style="text;strokeColor=none;fillColor=none;align=left;verticalAlign=top;spacingLeft=4;spacingRight=4;overflow=hidden;rotatable=0;points=[[0,0.5],[1,0.5]];portConstraint=eastwest;whiteSpace=wrap;html=1;" vertex="1" parent="FdTTx2aXjzVB3Kq-SJSm-26">
          <mxGeometry y="152" width="170" height="26" as="geometry" />
        </mxCell>
        <mxCell id="FdTTx2aXjzVB3Kq-SJSm-32" value="&lt;div&gt;+emails&lt;/div&gt;" style="text;strokeColor=none;fillColor=none;align=left;verticalAlign=top;spacingLeft=4;spacingRight=4;overflow=hidden;rotatable=0;points=[[0,0.5],[1,0.5]];portConstraint=eastwest;whiteSpace=wrap;html=1;" vertex="1" parent="FdTTx2aXjzVB3Kq-SJSm-26">
          <mxGeometry y="178" width="170" height="26" as="geometry" />
        </mxCell>
        <mxCell id="FdTTx2aXjzVB3Kq-SJSm-33" value="&lt;div&gt;+User(String)&lt;/div&gt;" style="text;strokeColor=none;fillColor=none;align=left;verticalAlign=top;spacingLeft=4;spacingRight=4;overflow=hidden;rotatable=0;points=[[0,0.5],[1,0.5]];portConstraint=eastwest;whiteSpace=wrap;html=1;" vertex="1" parent="FdTTx2aXjzVB3Kq-SJSm-26">
          <mxGeometry y="204" width="170" height="26" as="geometry" />
        </mxCell>
        <mxCell id="FdTTx2aXjzVB3Kq-SJSm-34" value="" style="line;strokeWidth=1;fillColor=none;align=left;verticalAlign=middle;spacingTop=-1;spacingLeft=3;spacingRight=3;rotatable=0;labelPosition=right;points=[];portConstraint=eastwest;strokeColor=inherit;" vertex="1" parent="FdTTx2aXjzVB3Kq-SJSm-26">
          <mxGeometry y="230" width="170" height="8" as="geometry" />
        </mxCell>
        <mxCell id="FdTTx2aXjzVB3Kq-SJSm-35" value="+globalId:&lt;div&gt;&lt;br&gt;&lt;/div&gt;" style="text;strokeColor=none;fillColor=none;align=left;verticalAlign=top;spacingLeft=4;spacingRight=4;overflow=hidden;rotatable=0;points=[[0,0.5],[1,0.5]];portConstraint=eastwest;whiteSpace=wrap;html=1;" vertex="1" parent="FdTTx2aXjzVB3Kq-SJSm-26">
          <mxGeometry y="238" width="170" height="32" as="geometry" />
        </mxCell>
        <mxCell id="FdTTx2aXjzVB3Kq-SJSm-36" value="+ method(type): type" style="text;strokeColor=none;fillColor=none;align=left;verticalAlign=top;spacingLeft=4;spacingRight=4;overflow=hidden;rotatable=0;points=[[0,0.5],[1,0.5]];portConstraint=eastwest;whiteSpace=wrap;html=1;" vertex="1" parent="FdTTx2aXjzVB3Kq-SJSm-26">
          <mxGeometry y="270" width="170" height="26" as="geometry" />
        </mxCell>
        <mxCell id="FdTTx2aXjzVB3Kq-SJSm-37" value="+globalId:&lt;div&gt;&lt;br&gt;&lt;/div&gt;" style="text;strokeColor=none;fillColor=none;align=left;verticalAlign=top;spacingLeft=4;spacingRight=4;overflow=hidden;rotatable=0;points=[[0,0.5],[1,0.5]];portConstraint=eastwest;whiteSpace=wrap;html=1;" vertex="1" parent="FdTTx2aXjzVB3Kq-SJSm-26">
          <mxGeometry y="296" width="170" height="26" as="geometry" />
        </mxCell>
        <mxCell id="FdTTx2aXjzVB3Kq-SJSm-38" value="Instructor" style="swimlane;fontStyle=1;align=center;verticalAlign=top;childLayout=stackLayout;horizontal=1;startSize=30;horizontalStack=0;resizeParent=1;resizeParentMax=0;resizeLast=0;collapsible=1;marginBottom=0;whiteSpace=wrap;html=1;" vertex="1" parent="WIyWlLk6GJQsqaUBKTNV-1">
          <mxGeometry x="570" y="190" width="170" height="322" as="geometry" />
        </mxCell>
        <mxCell id="FdTTx2aXjzVB3Kq-SJSm-39" value="+salary" style="text;strokeColor=none;fillColor=none;align=left;verticalAlign=top;spacingLeft=4;spacingRight=4;overflow=hidden;rotatable=0;points=[[0,0.5],[1,0.5]];portConstraint=eastwest;whiteSpace=wrap;html=1;" vertex="1" parent="FdTTx2aXjzVB3Kq-SJSm-38">
          <mxGeometry y="30" width="170" height="26" as="geometry" />
        </mxCell>
        <mxCell id="FdTTx2aXjzVB3Kq-SJSm-40" value="GetName(String)" style="text;strokeColor=none;fillColor=none;align=left;verticalAlign=top;spacingLeft=4;spacingRight=4;overflow=hidden;rotatable=0;points=[[0,0.5],[1,0.5]];portConstraint=eastwest;whiteSpace=wrap;html=1;" vertex="1" parent="FdTTx2aXjzVB3Kq-SJSm-38">
          <mxGeometry y="56" width="170" height="32" as="geometry" />
        </mxCell>
        <mxCell id="FdTTx2aXjzVB3Kq-SJSm-41" value="+dob" style="text;strokeColor=none;fillColor=none;align=left;verticalAlign=top;spacingLeft=4;spacingRight=4;overflow=hidden;rotatable=0;points=[[0,0.5],[1,0.5]];portConstraint=eastwest;whiteSpace=wrap;html=1;" vertex="1" parent="FdTTx2aXjzVB3Kq-SJSm-38">
          <mxGeometry y="88" width="170" height="32" as="geometry" />
        </mxCell>
        <mxCell id="FdTTx2aXjzVB3Kq-SJSm-42" value="+ID" style="text;strokeColor=none;fillColor=none;align=left;verticalAlign=top;spacingLeft=4;spacingRight=4;overflow=hidden;rotatable=0;points=[[0,0.5],[1,0.5]];portConstraint=eastwest;whiteSpace=wrap;html=1;" vertex="1" parent="FdTTx2aXjzVB3Kq-SJSm-38">
          <mxGeometry y="120" width="170" height="32" as="geometry" />
        </mxCell>
        <mxCell id="FdTTx2aXjzVB3Kq-SJSm-43" value="&lt;div&gt;+classes&lt;/div&gt;" style="text;strokeColor=none;fillColor=none;align=left;verticalAlign=top;spacingLeft=4;spacingRight=4;overflow=hidden;rotatable=0;points=[[0,0.5],[1,0.5]];portConstraint=eastwest;whiteSpace=wrap;html=1;" vertex="1" parent="FdTTx2aXjzVB3Kq-SJSm-38">
          <mxGeometry y="152" width="170" height="26" as="geometry" />
        </mxCell>
        <mxCell id="FdTTx2aXjzVB3Kq-SJSm-44" value="&lt;div&gt;+emails&lt;/div&gt;" style="text;strokeColor=none;fillColor=none;align=left;verticalAlign=top;spacingLeft=4;spacingRight=4;overflow=hidden;rotatable=0;points=[[0,0.5],[1,0.5]];portConstraint=eastwest;whiteSpace=wrap;html=1;" vertex="1" parent="FdTTx2aXjzVB3Kq-SJSm-38">
          <mxGeometry y="178" width="170" height="26" as="geometry" />
        </mxCell>
        <mxCell id="FdTTx2aXjzVB3Kq-SJSm-45" value="&lt;div&gt;+User(String)&lt;/div&gt;" style="text;strokeColor=none;fillColor=none;align=left;verticalAlign=top;spacingLeft=4;spacingRight=4;overflow=hidden;rotatable=0;points=[[0,0.5],[1,0.5]];portConstraint=eastwest;whiteSpace=wrap;html=1;" vertex="1" parent="FdTTx2aXjzVB3Kq-SJSm-38">
          <mxGeometry y="204" width="170" height="26" as="geometry" />
        </mxCell>
        <mxCell id="FdTTx2aXjzVB3Kq-SJSm-46" value="" style="line;strokeWidth=1;fillColor=none;align=left;verticalAlign=middle;spacingTop=-1;spacingLeft=3;spacingRight=3;rotatable=0;labelPosition=right;points=[];portConstraint=eastwest;strokeColor=inherit;" vertex="1" parent="FdTTx2aXjzVB3Kq-SJSm-38">
          <mxGeometry y="230" width="170" height="8" as="geometry" />
        </mxCell>
        <mxCell id="FdTTx2aXjzVB3Kq-SJSm-47" value="+globalId:&lt;div&gt;&lt;br&gt;&lt;/div&gt;" style="text;strokeColor=none;fillColor=none;align=left;verticalAlign=top;spacingLeft=4;spacingRight=4;overflow=hidden;rotatable=0;points=[[0,0.5],[1,0.5]];portConstraint=eastwest;whiteSpace=wrap;html=1;" vertex="1" parent="FdTTx2aXjzVB3Kq-SJSm-38">
          <mxGeometry y="238" width="170" height="32" as="geometry" />
        </mxCell>
        <mxCell id="FdTTx2aXjzVB3Kq-SJSm-48" value="+ method(type): type" style="text;strokeColor=none;fillColor=none;align=left;verticalAlign=top;spacingLeft=4;spacingRight=4;overflow=hidden;rotatable=0;points=[[0,0.5],[1,0.5]];portConstraint=eastwest;whiteSpace=wrap;html=1;" vertex="1" parent="FdTTx2aXjzVB3Kq-SJSm-38">
          <mxGeometry y="270" width="170" height="26" as="geometry" />
        </mxCell>
        <mxCell id="FdTTx2aXjzVB3Kq-SJSm-49" value="+globalId:&lt;div&gt;&lt;br&gt;&lt;/div&gt;" style="text;strokeColor=none;fillColor=none;align=left;verticalAlign=top;spacingLeft=4;spacingRight=4;overflow=hidden;rotatable=0;points=[[0,0.5],[1,0.5]];portConstraint=eastwest;whiteSpace=wrap;html=1;" vertex="1" parent="FdTTx2aXjzVB3Kq-SJSm-38">
          <mxGeometry y="296" width="170" height="26" as="geometry" />
        </mxCell>
      </root>
    </mxGraphModel>
  </diagram>
</mxfile>
